<?xml version="1.0" standalone="no"?>
<!DOCTYPE svg PUBLIC "-//W3C//DTD SVG 20010904//EN"
 "http://www.w3.org/TR/2001/REC-SVG-20010904/DTD/svg10.dtd">
<svg version="1.0" xmlns="http://www.w3.org/2000/svg"
 width="400.000000pt" height="400.000000pt" viewBox="0 0 400.000000 400.000000"
 preserveAspectRatio="xMidYMid meet">
<metadata>
Created by potrace 1.14, written by Peter Selinger 2001-2017
</metadata>
<g transform="translate(0.000000,400.000000) scale(0.100000,-0.100000)"
fill="#000000" stroke="none">
<path d="M326 3975 c-9 -13 -16 -31 -16 -38 0 -8 -9 -26 -21 -41 -19 -24 -59
-157 -59 -196 0 -9 -8 -27 -17 -40 -24 -33 -43 -88 -43 -125 0 -16 -9 -45 -20
-63 -11 -18 -20 -45 -20 -60 0 -15 -7 -36 -15 -46 -8 -11 -15 -34 -15 -52 0
-18 -7 -39 -15 -47 -8 -8 -22 -35 -30 -58 -30 -80 -30 -79 -2 -79 28 0 57 36
57 73 0 13 9 42 20 65 11 22 20 51 20 64 0 13 7 32 15 42 8 11 15 30 15 42 0
13 5 26 11 30 6 3 8 15 6 26 -5 19 4 57 28 113 7 17 18 53 25 82 6 28 20 59
30 68 11 10 27 40 36 69 9 28 21 57 27 64 5 6 7 25 4 40 -3 16 0 41 9 56 17
35 17 36 0 36 -7 0 -21 -11 -30 -25z"/>
<path d="M2730 3575 c-16 -42 -12 -45 25 -22 38 24 40 40 7 45 -16 3 -25 -4
-32 -23z"/>
<path d="M2743 3427 c-24 -11 -43 -26 -43 -34 0 -17 24 -17 39 1 7 8 28 17 47
21 29 5 33 9 24 21 -15 17 -14 17 -67 -9z"/>
<path d="M2850 3405 c0 -8 7 -15 15 -15 8 0 15 4 15 9 0 5 -7 11 -15 15 -9 3
-15 0 -15 -9z"/>
<path d="M3590 3406 c0 -9 5 -16 10 -16 6 0 10 4 10 9 0 6 -4 13 -10 16 -5 3
-10 -1 -10 -9z"/>
<path d="M2980 3349 c0 -5 5 -7 10 -4 6 3 10 8 10 11 0 2 -4 4 -10 4 -5 0 -10
-5 -10 -11z"/>
<path d="M3110 3320 c0 -5 5 -10 10 -10 6 0 10 5 10 10 0 6 -4 10 -10 10 -5 0
-10 -4 -10 -10z"/>
<path d="M2490 3230 c-9 -6 -9 -9 0 -15 18 -11 32 -56 21 -69 -6 -7 2 -17 25
-28 33 -17 34 -17 34 1 0 30 -65 120 -80 111z"/>
<path d="M2596 3185 c-4 -13 -2 -14 14 -5 23 13 26 20 6 20 -8 0 -16 -7 -20
-15z"/>
<path d="M1140 3165 c0 -14 5 -25 10 -25 6 0 10 2 10 4 0 2 3 11 6 19 3 8 -2
17 -10 20 -12 5 -16 0 -16 -18z"/>
<path d="M2395 3160 c3 -5 8 -10 11 -10 2 0 4 5 4 10 0 6 -5 10 -11 10 -5 0
-7 -4 -4 -10z"/>
<path d="M3706 3145 c-15 -14 -25 -25 -23 -25 13 0 67 33 67 41 0 16 -16 10
-44 -16z"/>
<path d="M1569 3084 c-12 -14 -11 -16 5 -13 11 2 21 10 24 17 5 17 -13 15 -29
-4z"/>
<path d="M690 3086 c0 -2 7 -6 15 -10 8 -3 15 -1 15 4 0 6 -7 10 -15 10 -8 0
-15 -2 -15 -4z"/>
<path d="M2175 2928 c-28 -16 -36 -30 -23 -45 19 -24 43 -10 53 30 8 29 1 33
-30 15z"/>
<path d="M3522 2920 c0 -14 2 -19 5 -12 2 6 2 18 0 25 -3 6 -5 1 -5 -13z"/>
<path d="M5 2843 c4 -32 11 -62 16 -67 5 -6 9 -18 9 -27 0 -22 12 -30 29 -20
10 7 9 13 -9 31 -18 18 -20 28 -15 60 8 47 -1 80 -22 80 -13 0 -14 -9 -8 -57z"/>
<path d="M2095 2861 c-3 -6 -11 -9 -16 -6 -5 4 -9 -1 -9 -9 0 -9 4 -16 9 -16
12 0 35 29 28 36 -3 3 -8 0 -12 -5z"/>
<path d="M2120 2801 c0 -10 -7 -21 -15 -25 -22 -8 -18 -36 5 -36 12 0 20 7 20
16 0 9 9 18 20 21 23 6 25 14 8 31 -18 18 -38 14 -38 -7z"/>
<path d="M3510 2800 c0 -8 5 -22 10 -30 9 -13 10 -13 10 0 0 8 -5 22 -10 30
-9 13 -10 13 -10 0z"/>
<path d="M830 2781 c0 -5 7 -11 15 -15 9 -3 15 0 15 9 0 8 -7 15 -15 15 -8 0
-15 -4 -15 -9z"/>
<path d="M1077 2770 c-44 -8 -51 -14 -44 -34 5 -14 10 -14 34 -1 15 8 36 16
46 19 16 5 25 27 10 25 -5 -1 -25 -5 -46 -9z"/>
<path d="M1725 2740 c3 -5 13 -10 21 -10 8 0 12 5 9 10 -3 6 -13 10 -21 10 -8
0 -12 -4 -9 -10z"/>
<path d="M2235 2740 c-3 -5 -1 -10 4 -10 6 0 11 5 11 10 0 6 -2 10 -4 10 -3 0
-8 -4 -11 -10z"/>
<path d="M1970 2711 c0 -5 -13 -12 -29 -16 -16 -3 -39 -17 -51 -31 -27 -27
-22 -29 37 -11 53 16 97 67 58 67 -8 0 -15 -4 -15 -9z"/>
<path d="M3516 2676 c-4 -23 -3 -43 3 -49 16 -16 24 15 13 54 l-9 34 -7 -39z"/>
<path d="M840 2685 c0 -8 7 -15 15 -15 8 0 15 7 15 15 0 8 -7 15 -15 15 -8 0
-15 -7 -15 -15z"/>
<path d="M1778 2659 c-21 -21 -38 -44 -38 -52 0 -8 -9 -22 -20 -32 -11 -10
-20 -30 -20 -45 0 -20 -9 -34 -35 -51 -29 -20 -35 -30 -35 -61 0 -25 4 -37 13
-35 7 1 13 -10 15 -25 4 -35 18 -36 26 -3 4 14 14 33 24 43 10 10 24 33 31 52
25 63 52 100 72 100 16 0 18 4 11 18 -13 23 -4 42 19 42 10 0 19 5 19 12 0 24
-24 78 -35 77 -5 -1 -27 -18 -47 -40z"/>
<path d="M204 2678 c-8 -12 27 -23 35 -11 3 6 13 12 21 15 8 3 0 6 -18 5 -18
0 -35 -4 -38 -9z"/>
<path d="M2150 2665 c0 -14 -5 -25 -11 -25 -5 0 -7 -5 -4 -10 4 -6 15 0 26 15
11 13 17 29 14 35 -11 18 -25 10 -25 -15z"/>
<path d="M110 2670 c0 -14 26 -23 41 -15 8 6 7 10 -2 16 -19 12 -39 11 -39 -1z"/>
<path d="M119 2624 c-10 -13 -10 -20 4 -44 9 -15 17 -37 17 -47 0 -11 14 -45
31 -76 17 -31 26 -57 20 -57 -6 0 -11 -9 -11 -20 0 -11 -7 -20 -15 -20 -9 0
-20 -11 -25 -25 -10 -27 -50 -36 -50 -11 0 15 -60 29 -72 17 -14 -12 22 -51
47 -51 13 0 37 -8 54 -17 28 -16 33 -16 41 -3 7 12 12 12 22 2 10 -10 10 -17
0 -32 -15 -24 0 -35 28 -20 26 14 43 4 37 -21 -4 -13 0 -19 11 -19 10 0 25 -7
36 -15 17 -13 21 -12 37 9 22 28 24 57 7 74 -6 6 -10 13 -7 15 32 21 97 47
119 47 16 0 30 7 34 16 3 8 10 13 15 10 17 -11 41 6 41 29 0 13 7 25 15 29 12
4 13 10 3 31 -7 15 -17 24 -25 21 -10 -4 -11 -1 -4 13 11 19 5 31 -14 31 -12
0 -14 -67 -2 -86 3 -6 1 -19 -6 -28 -12 -16 -16 -16 -65 9 -31 15 -57 36 -62
49 -5 13 -15 26 -23 29 -9 3 -23 22 -33 42 -22 48 -57 70 -105 66 -31 -2 -40
2 -50 21 -22 41 -35 49 -50 32z m133 -109 c13 -19 28 -35 34 -35 6 0 32 -23
58 -52 39 -43 45 -55 39 -75 -8 -24 -9 -23 -57 21 -26 25 -55 48 -65 51 -34
11 -74 98 -54 118 13 13 23 7 45 -28z m78 -205 c0 -5 -2 -10 -4 -10 -3 0 -8 5
-11 10 -3 6 -1 10 4 10 6 0 11 -4 11 -10z m-80 -35 c0 -8 -7 -15 -15 -15 -8 0
-15 7 -15 15 0 8 7 15 15 15 8 0 15 -7 15 -15z"/>
<path d="M394 2629 c-3 -6 -1 -16 5 -22 8 -8 11 -5 11 11 0 24 -5 28 -16 11z"/>
<path d="M836 2614 c-4 -10 -1 -14 6 -12 15 5 23 28 10 28 -5 0 -13 -7 -16
-16z"/>
<path d="M2127 2603 c-4 -3 -7 -15 -7 -25 0 -26 24 -17 28 10 3 21 -8 29 -21
15z"/>
<path d="M910 2527 c0 -14 20 -37 32 -37 15 0 8 38 -8 44 -22 8 -24 8 -24 -7z"/>
<path d="M3504 2496 c-9 -24 12 -44 28 -28 10 10 8 16 -5 29 -15 15 -17 15
-23 -1z"/>
<path d="M1560 2428 c0 -16 4 -28 9 -28 18 0 20 17 6 36 -14 18 -14 18 -15 -8z"/>
<path d="M870 2400 c0 -5 5 -10 11 -10 5 0 7 5 4 10 -3 6 -8 10 -11 10 -2 0
-4 -4 -4 -10z"/>
<path d="M2032 2380 c-6 -11 -12 -28 -12 -37 0 -12 7 -7 20 15 11 18 20 35 20
37 0 12 -16 3 -28 -15z"/>
<path d="M80 2381 c0 -5 5 -13 10 -16 6 -3 10 -2 10 4 0 5 -4 13 -10 16 -5 3
-10 2 -10 -4z"/>
<path d="M2220 2379 c0 -5 5 -7 10 -4 6 3 10 8 10 11 0 2 -4 4 -10 4 -5 0 -10
-5 -10 -11z"/>
<path d="M1570 2351 c0 -17 5 -33 10 -36 6 -4 8 -15 5 -26 -4 -10 -2 -19 3
-19 11 0 25 87 16 101 -13 21 -34 8 -34 -20z"/>
<path d="M3488 2350 c-4 -8 -8 -33 -11 -55 -3 -22 -6 -45 -8 -51 -2 -7 0 -14
5 -15 15 -6 32 63 26 101 -4 22 -9 29 -12 20z"/>
<path d="M846 2303 c-4 -9 -2 -21 4 -27 7 -7 10 -2 10 17 0 31 -5 34 -14 10z"/>
<path d="M2288 2311 c-30 -10 -151 -105 -240 -188 -51 -48 -59 -52 -83 -43
-27 10 -27 5 -2 -28 16 -21 57 -125 57 -145 0 -10 -4 -26 -10 -36 -6 -11 -6
-30 -1 -49 12 -42 -9 -48 -55 -17 -20 14 -46 26 -58 26 -65 5 -86 3 -86 -4 0
-5 -7 -15 -15 -23 -22 -23 -19 -37 19 -75 47 -48 70 -59 118 -59 25 0 49 -7
60 -17 16 -14 21 -15 28 -4 5 10 19 12 45 7 38 -8 78 10 55 24 -22 13 15 67
50 74 20 3 29 10 24 17 -16 26 87 -27 108 -55 11 -16 58 11 58 34 0 11 12 38
26 60 30 45 36 70 65 258 23 148 20 188 -16 222 -27 25 -100 36 -147 21z"/>
<path d="M573 2293 c-22 -8 -14 -81 17 -175 17 -50 33 -106 36 -124 6 -41 43
-132 66 -165 l17 -24 20 23 c10 12 23 22 28 22 5 0 21 12 36 28 14 15 43 36
64 47 21 11 53 30 70 43 l32 24 -24 32 c-14 18 -25 38 -25 44 0 11 -23 39 -87
106 -18 19 -74 55 -124 80 -92 46 -102 49 -126 39z"/>
<path d="M1964 2284 c10 -26 -4 -64 -25 -64 -10 0 -19 7 -19 15 0 8 -4 15 -8
15 -11 0 -9 -81 2 -99 6 -10 13 -4 23 20 8 19 23 43 34 55 16 17 18 26 10 47
-6 15 -13 27 -17 27 -3 0 -3 -7 0 -16z"/>
<path d="M1041 2224 c0 -11 3 -14 6 -6 3 7 2 16 -1 19 -3 4 -6 -2 -5 -13z"/>
<path d="M2095 2210 c3 -5 8 -10 11 -10 2 0 4 5 4 10 0 6 -5 10 -11 10 -5 0
-7 -4 -4 -10z"/>
<path d="M3440 2157 c0 -9 -4 -17 -10 -17 -5 0 -10 -11 -10 -25 0 -48 -21
-171 -40 -230 -27 -86 -33 -139 -24 -203 l7 -57 9 45 c5 25 6 61 2 82 -7 49
17 98 46 91 24 -6 26 5 3 22 -15 11 -15 19 -5 71 7 33 12 68 12 79 -2 31 -1
37 9 94 6 30 8 57 6 60 -3 2 -5 -3 -5 -12z"/>
<path d="M1040 2150 c0 -5 7 -10 15 -10 8 0 15 5 15 10 0 6 -7 10 -15 10 -8 0
-15 -4 -15 -10z"/>
<path d="M360 2085 c-7 -8 -25 -15 -41 -15 -26 0 -29 -3 -23 -25 4 -17 1 -32
-11 -44 -14 -16 -14 -20 -2 -28 21 -12 50 -61 45 -75 -3 -7 2 -18 10 -24 8 -6
25 -35 37 -65 17 -39 29 -55 45 -57 20 -3 21 -1 15 27 -5 26 -2 35 17 51 12
11 35 19 49 20 30 0 47 27 24 36 -8 4 -15 17 -15 30 0 15 -6 24 -15 24 -10 0
-15 10 -15 30 0 26 -5 31 -30 37 -34 6 -41 23 -10 23 11 0 20 4 20 9 0 16 -29
33 -46 27 -12 -4 -14 -1 -9 14 5 15 2 20 -13 20 -11 0 -25 -7 -32 -15z m101
-111 c11 -14 11 -18 -5 -29 -16 -13 -16 -14 3 -20 12 -3 21 -12 21 -20 0 -22
-35 -27 -78 -9 -38 15 -40 17 -30 40 16 35 -4 54 -31 30 -19 -17 -39 -7 -26
14 11 17 131 12 146 -6z"/>
<path d="M2805 2080 c-3 -5 1 -10 9 -10 9 0 16 5 16 10 0 6 -4 10 -9 10 -6 0
-13 -4 -16 -10z"/>
<path d="M2840 1889 c0 -5 5 -7 10 -4 6 3 10 8 10 11 0 2 -4 4 -10 4 -5 0 -10
-5 -10 -11z"/>
<path d="M140 1880 c-33 -4 -40 -7 -27 -12 25 -10 49 -10 67 2 21 13 11 16
-40 10z"/>
<path d="M1238 1873 c-16 -2 -28 -9 -28 -14 0 -5 -12 -9 -26 -9 -14 0 -23 -4
-19 -10 3 -6 -4 -10 -17 -10 -28 0 -71 -28 -63 -41 4 -5 -1 -9 -9 -9 -8 0 -17
4 -21 10 -3 5 -13 6 -21 3 -11 -4 -12 -8 -4 -13 6 -4 11 -10 11 -14 -4 -28 2
-36 23 -36 13 0 26 -5 28 -12 3 -7 9 -8 19 -3 19 13 62 6 72 -11 5 -8 24 -14
47 -14 30 0 43 6 59 28 33 43 36 46 60 62 23 15 23 17 7 47 -9 18 -19 34 -23
36 -15 9 -68 14 -95 10z"/>
<path d="M1493 1801 c-57 -26 -113 -72 -113 -92 0 -8 -13 -36 -29 -61 -16 -25
-27 -49 -24 -51 3 -3 -5 -3 -16 0 -12 3 -21 2 -19 -3 1 -5 -6 -21 -16 -36 -10
-15 -15 -31 -12 -36 3 -5 -8 -19 -24 -31 -17 -12 -30 -27 -30 -33 0 -22 -45
-78 -62 -78 -11 0 -15 5 -12 15 4 11 -5 16 -36 21 -28 5 -37 10 -28 15 22 15
-7 10 -38 -6 -16 -8 -40 -31 -53 -51 -24 -35 -25 -35 -33 -13 -5 13 -5 26 1
32 6 6 7 17 2 26 -5 9 -11 21 -13 26 -4 11 -65 12 -94 1 -18 -7 -17 -8 6 -21
14 -7 28 -11 32 -9 5 3 7 -7 7 -23 -1 -17 -3 -21 -6 -10 -2 9 -13 17 -23 17
-25 0 -91 -40 -85 -50 3 -5 -4 -24 -15 -42 -11 -18 -20 -27 -20 -20 0 6 -9 12
-21 12 -14 0 -19 5 -16 14 7 18 -25 47 -49 47 -11 -1 -46 -1 -79 -1 -75 0
-100 -7 -86 -24 14 -16 2 -56 -16 -56 -12 0 -12 -2 1 -16 21 -21 20 -24 -14
-58 -16 -16 -32 -37 -35 -47 -4 -11 -10 -19 -15 -19 -11 0 -70 -52 -70 -62 0
-10 -61 -68 -71 -68 -5 0 -9 -5 -9 -11 0 -14 -47 -59 -61 -59 -6 0 -8 -9 -4
-20 4 -13 -1 -27 -14 -42 -12 -12 -21 -27 -21 -34 0 -7 -10 -20 -22 -28 -27
-19 -61 -103 -44 -110 7 -3 6 -8 -4 -15 -9 -7 -10 -11 -3 -11 6 0 15 5 18 10
3 6 15 10 26 10 11 0 17 4 14 10 -4 6 11 8 39 5 34 -3 46 -1 46 9 0 7 12 13
30 13 17 0 30 -4 30 -9 0 -4 5 -8 11 -8 6 0 8 9 4 23 -6 18 -5 20 6 10 18 -17
39 -16 39 1 0 21 46 -4 83 -44 16 -16 32 -30 37 -30 4 0 10 -9 13 -20 3 -11 2
-20 -2 -20 -3 0 -5 -26 -4 -57 1 -32 -3 -63 -8 -70 -6 -6 -10 -30 -11 -52 0
-23 -4 -41 -9 -41 -5 0 -24 -15 -42 -34 -31 -31 -37 -33 -58 -22 -13 7 -23 18
-21 24 1 7 -6 12 -15 12 -10 0 -42 16 -71 37 -38 26 -49 39 -40 44 7 5 8 9 2
9 -10 0 -69 81 -93 128 -12 23 -31 30 -31 12 0 -6 -4 -16 -10 -23 -70 -86 -65
-67 -68 -234 -3 -133 -1 -153 12 -154 29 -3 34 -4 42 -12 4 -4 0 -7 -9 -7 -10
0 -17 -4 -17 -10 0 -5 9 -10 20 -10 11 0 29 -6 40 -13 17 -10 22 -9 30 3 5 8
11 12 13 10 11 -14 35 -89 30 -94 -4 -3 1 -6 9 -6 12 0 15 -9 12 -40 l-3 -40
471 0 471 0 23 25 c13 14 32 25 44 25 11 0 23 6 26 14 3 8 21 17 40 21 22 4
32 10 28 17 -5 8 3 9 25 5 20 -4 40 -2 54 7 12 8 37 17 56 21 19 4 48 20 64
35 17 16 36 26 43 23 7 -2 22 5 34 17 11 11 29 19 38 16 73 -20 82 -19 93 13
12 33 20 37 49 21 13 -7 19 -6 24 5 3 8 21 21 41 29 23 10 35 22 35 34 0 11 7
23 16 26 8 3 12 11 9 17 -5 6 -38 10 -89 8 -45 -1 -94 3 -109 9 -16 7 -39 12
-53 12 -13 0 -24 4 -24 8 0 5 -14 8 -31 7 -24 -1 -33 3 -37 17 -2 11 -15 24
-28 28 -22 9 -23 12 -12 37 15 34 25 42 47 37 11 -3 22 9 35 38 19 42 66 98
83 98 4 0 26 16 48 36 l40 35 -35 -6 c-19 -3 -56 -9 -81 -13 -26 -5 -55 -5
-65 -1 -11 4 -13 8 -6 10 6 1 15 2 20 3 4 1 23 6 42 10 19 5 48 22 64 37 17
16 33 29 37 29 4 0 10 13 14 30 3 16 15 32 25 35 10 3 17 13 16 22 -1 11 11
19 34 25 19 5 44 17 55 27 11 9 43 32 70 50 67 44 86 73 92 135 4 46 1 57 -20
82 -23 27 -28 28 -56 17 -17 -6 -31 -7 -31 -2 0 5 -7 9 -16 9 -13 0 -14 3 -5
14 10 11 8 16 -8 21 -10 3 -22 13 -25 21 -3 8 -10 12 -16 9 -5 -3 -10 -2 -10
4 0 5 5 13 10 16 6 4 -7 20 -30 36 -31 22 -40 36 -40 58 0 16 -7 41 -15 57 -8
16 -11 31 -7 34 14 10 14 80 0 81 -7 1 -2 4 12 8 21 6 25 13 28 52 3 53 -16
83 -84 129 -59 41 -149 50 -211 21z m194 -22 c38 -14 17 -31 -31 -24 -43 8
-66 20 -66 37 0 11 54 4 97 -13z m-824 -416 c-7 -2 -19 -2 -25 0 -7 3 -2 5 12
5 14 0 19 -2 13 -5z m-223 -149 c0 -9 -33 -33 -45 -34 -5 0 -3 5 5 10 12 8 12
10 -5 11 l-20 0 20 9 c25 11 45 12 45 4z m918 -160 c13 -14 12 -17 -6 -30 -11
-8 -22 -24 -24 -37 -5 -34 -79 -28 -127 11 -51 41 -52 62 -4 63 21 1 52 5 68
9 37 10 73 4 93 -16z m173 -107 c-10 -9 -11 -8 -5 6 3 10 9 15 12 12 3 -3 0
-11 -7 -18z"/>
<path d="M530 1771 c0 -3 9 -12 20 -19 16 -10 20 -10 20 2 0 7 -9 16 -20 19
-11 3 -20 2 -20 -2z"/>
<path d="M2501 1764 c0 -11 3 -14 6 -6 3 7 2 16 -1 19 -3 4 -6 -2 -5 -13z"/>
<path d="M2520 1720 c0 -5 5 -10 11 -10 5 0 7 5 4 10 -3 6 -8 10 -11 10 -2 0
-4 -4 -4 -10z"/>
<path d="M2420 1690 c0 -5 5 -10 11 -10 5 0 7 5 4 10 -3 6 -8 10 -11 10 -2 0
-4 -4 -4 -10z"/>
<path d="M2420 1611 c0 -11 5 -23 10 -26 6 -3 10 3 10 14 0 11 -4 23 -10 26
-5 3 -10 -3 -10 -14z"/>
<path d="M3347 1607 c-11 -29 -9 -43 4 -30 6 6 9 19 7 29 -3 18 -4 18 -11 1z"/>
<path d="M2580 1595 c0 -6 9 -28 20 -50 11 -22 20 -52 20 -67 0 -15 5 -28 10
-28 6 0 10 18 10 39 0 22 5 43 10 46 16 10 2 24 -19 18 -14 -3 -24 3 -35 24
-8 15 -15 23 -16 18z"/>
<path d="M502 1538 c-17 -8 -22 -19 -20 -36 4 -33 24 -39 33 -10 9 30 16 58
12 57 -1 0 -12 -5 -25 -11z"/>
<path d="M3312 1502 c-6 -15 -21 -56 -33 -92 -23 -70 -65 -136 -90 -143 -9 -3
-28 -36 -44 -78 -16 -41 -37 -80 -47 -88 -10 -7 -18 -21 -18 -31 0 -9 -13 -36
-30 -58 -16 -23 -30 -45 -30 -50 0 -16 -88 -94 -99 -88 -6 4 -11 0 -11 -8 0
-9 7 -16 15 -16 17 0 22 -65 6 -75 -5 -3 -21 -29 -35 -58 -14 -28 -32 -60 -40
-71 -17 -21 -40 -12 -33 15 3 10 -1 23 -8 29 -18 15 -32 -45 -15 -65 9 -11 10
-22 2 -42 -6 -16 -14 -43 -17 -60 -8 -41 -22 -50 -40 -27 -21 27 -18 49 8 67
27 18 17 33 -12 16 -18 -12 -24 -10 -52 21 -44 50 -57 78 -69 156 -6 37 -15
73 -19 79 -19 26 -46 181 -67 388 -5 58 -9 67 -26 67 -13 0 -18 -5 -15 -14 3
-8 9 -52 12 -98 4 -46 11 -110 16 -143 6 -33 15 -94 20 -135 6 -41 14 -79 19
-85 5 -6 14 -33 21 -60 7 -27 18 -61 26 -75 7 -14 13 -32 13 -40 0 -9 9 -34
20 -55 12 -22 21 -53 22 -68 1 -18 10 -34 23 -43 15 -10 29 -36 40 -77 9 -34
24 -82 32 -107 9 -25 17 -79 18 -120 1 -41 6 -96 10 -122 7 -47 8 -48 42 -48
l36 0 -5 44 c-3 24 -13 59 -22 77 -14 27 -18 68 -21 193 -4 175 5 223 47 269
27 29 73 118 84 163 5 21 11 25 30 21 27 -5 31 5 9 23 -21 17 -19 39 8 79 12
19 27 42 32 50 6 9 22 32 36 51 15 19 39 61 54 93 14 31 30 57 35 57 4 0 6 9
3 20 -3 11 0 20 6 20 6 0 18 16 26 36 8 20 30 53 49 74 32 35 40 56 81 193 18
62 17 83 -3 39z"/>
<path d="M861 1492 c-10 -18 -7 -20 29 -18 42 1 52 10 23 20 -10 3 -23 9 -30
12 -6 3 -16 -4 -22 -14z"/>
<path d="M648 1383 c6 -2 18 -2 25 0 6 3 1 5 -13 5 -14 0 -19 -2 -12 -5z"/>
<path d="M3983 1349 c-16 -16 -17 -49 -3 -49 13 0 23 24 18 45 -2 13 -5 14
-15 4z"/>
<path d="M2488 1344 c-8 -7 2 -44 12 -44 4 0 5 11 2 25 -5 27 -6 28 -14 19z"/>
<path d="M3320 1330 c0 -5 5 -10 11 -10 5 0 7 5 4 10 -3 6 -8 10 -11 10 -2 0
-4 -4 -4 -10z"/>
<path d="M3960 1259 c0 -11 5 -17 10 -14 6 3 10 13 10 21 0 8 -4 14 -10 14 -5
0 -10 -9 -10 -21z"/>
<path d="M3940 1220 c0 -5 5 -10 10 -10 6 0 10 5 10 10 0 6 -4 10 -10 10 -5 0
-10 -4 -10 -10z"/>
<path d="M2690 1178 c0 -15 5 -30 11 -33 19 -12 21 2 5 32 l-15 28 -1 -27z"/>
<path d="M3560 1186 c0 -9 7 -16 16 -16 17 0 14 22 -4 28 -7 2 -12 -3 -12 -12z"/>
<path d="M3923 1174 c-23 -25 -31 -64 -14 -64 14 0 28 23 34 58 4 17 5 32 4
32 -1 0 -12 -12 -24 -26z"/>
<path d="M2711 1094 c0 -11 3 -14 6 -6 3 7 2 16 -1 19 -3 4 -6 -2 -5 -13z"/>
<path d="M3870 1081 c-9 -9 -16 -28 -17 -41 -1 -14 -4 -41 -8 -60 -5 -34 -5
-34 16 10 12 25 28 53 36 62 15 17 12 49 -4 47 -4 0 -15 -8 -23 -18z"/>
<path d="M3761 1055 c24 -13 44 -11 34 4 -2 5 -17 9 -31 9 l-27 0 24 -13z"/>
<path d="M3555 1019 c-10 -15 3 -25 16 -12 7 7 7 13 1 17 -6 3 -14 1 -17 -5z"/>
<path d="M42 950 c-27 -31 -42 -57 -40 -69 3 -17 11 -13 56 30 49 46 63 78 37
85 -5 2 -29 -19 -53 -46z"/>
<path d="M3947 994 c-14 -14 -7 -22 23 -26 24 -4 30 -1 28 11 -3 17 -39 27
-51 15z"/>
<path d="M2740 900 c0 -5 5 -10 11 -10 5 0 7 5 4 10 -3 6 -8 10 -11 10 -2 0
-4 -4 -4 -10z"/>
<path d="M2740 855 c0 -8 5 -15 10 -15 6 0 10 7 10 15 0 8 -4 15 -10 15 -5 0
-10 -7 -10 -15z"/>
<path d="M3513 773 c-7 -36 -7 -62 -2 -68 14 -14 28 13 30 58 1 20 2 42 3 49
1 6 -4 13 -10 15 -6 2 -15 -21 -21 -54z"/>
<path d="M3790 754 c0 -8 5 -12 10 -9 6 3 10 10 10 16 0 5 -4 9 -10 9 -5 0
-10 -7 -10 -16z"/>
<path d="M3970 675 c-14 -15 -38 -34 -53 -42 -16 -8 -49 -30 -74 -49 -50 -38
-67 -42 -82 -16 -8 12 -10 13 -11 3 0 -15 -63 -126 -110 -196 -15 -22 -39 -62
-54 -90 -14 -27 -30 -57 -35 -65 -22 -38 -79 -168 -85 -193 -5 -22 -3 -27 13
-27 12 0 21 9 25 28 10 40 134 290 149 299 7 4 23 31 36 58 32 70 63 108 116
144 25 17 48 31 51 31 8 0 122 80 134 95 6 8 10 21 8 30 -2 14 -8 12 -28 -10z"/>
<path d="M80 660 c0 -5 5 -10 11 -10 5 0 7 5 4 10 -3 6 -8 10 -11 10 -2 0 -4
-4 -4 -10z"/>
<path d="M3090 541 c0 -5 5 -13 10 -16 6 -3 10 -2 10 4 0 5 -4 13 -10 16 -5 3
-10 2 -10 -4z"/>
<path d="M3477 517 c-3 -8 -2 -19 3 -26 5 -10 9 -8 14 4 3 9 6 21 6 26 0 14
-17 11 -23 -4z"/>
<path d="M2850 365 c0 -8 5 -15 10 -15 6 0 10 7 10 15 0 8 -4 15 -10 15 -5 0
-10 -7 -10 -15z"/>
<path d="M2089 319 c-16 -30 -6 -87 26 -150 23 -47 25 -55 11 -65 -20 -14 -20
-24 0 -24 8 0 33 -18 55 -40 34 -35 46 -40 83 -40 l44 0 -61 63 c-73 74 -114
146 -99 172 7 13 4 30 -12 61 -24 50 -31 53 -47 23z"/>
<path d="M3073 279 c2 -13 9 -25 15 -27 8 -2 11 5 9 19 -2 13 -9 25 -15 27 -8
2 -11 -5 -9 -19z"/>
<path d="M3206 274 c-8 -21 -8 -21 9 -28 11 -4 15 1 15 19 0 28 -15 33 -24 9z"/>
<path d="M3028 273 c7 -3 16 -2 19 1 4 3 -2 6 -13 5 -11 0 -14 -3 -6 -6z"/>
<path d="M3420 249 c0 -11 5 -17 10 -14 6 3 10 13 10 21 0 8 -4 14 -10 14 -5
0 -10 -9 -10 -21z"/>
<path d="M3126 241 c-8 -13 23 -37 85 -66 67 -30 120 -79 145 -134 12 -25 26
-41 37 -41 21 0 22 28 2 57 -14 20 -14 26 -1 56 8 19 19 38 25 41 16 10 14 69
-1 64 -7 -3 -17 -14 -23 -26 -11 -24 -23 -29 -22 -9 0 6 -1 21 -2 32 -2 20 -2
20 -16 1 -8 -11 -15 -28 -15 -38 0 -27 -17 -22 -52 15 -19 20 -32 28 -35 20
-7 -20 -29 -15 -61 12 -30 25 -57 32 -66 16z"/>
<path d="M2350 220 c0 -5 5 -10 12 -10 7 0 29 -17 50 -37 21 -20 38 -32 38
-26 0 17 -40 63 -56 63 -8 0 -14 5 -14 10 0 6 -7 10 -15 10 -8 0 -15 -4 -15
-10z"/>
<path d="M120 110 c0 -5 7 -10 16 -10 8 0 12 5 9 10 -3 6 -10 10 -16 10 -5 0
-9 -4 -9 -10z"/>
<path d="M2490 110 c0 -5 10 -15 23 -21 12 -7 42 -29 66 -51 26 -22 54 -38 69
-38 24 0 25 1 7 20 -10 11 -23 20 -30 20 -6 0 -20 7 -30 15 -29 22 -95 65
-100 65 -3 0 -5 -4 -5 -10z"/>
<path d="M3110 61 c-6 -11 -6 -22 -1 -25 5 -3 11 5 13 19 6 30 2 32 -12 6z"/>
</g>
</svg>
